<svg xmlns="http://www.w3.org/2000/svg" xmlns:xlink="http://www.w3.org/1999/xlink" width="200" zoomAndPan="magnify" viewBox="0 0 150 149.999998" height="200" preserveAspectRatio="xMidYMid meet" version="1.0"><defs><g/><clipPath id="f7922da48d"><path d="M 76 40 L 146 40 L 146 110 L 76 110 Z M 76 40 " clip-rule="nonzero"/></clipPath><clipPath id="9d2fcba649"><path d="M 154.125 47.710938 L 137.347656 118.5 L 68.75 102.242188 L 85.527344 31.453125 Z M 154.125 47.710938 " clip-rule="nonzero"/></clipPath><clipPath id="91edbb7ad6"><path d="M 154.125 47.710938 L 137.347656 118.5 L 68.75 102.242188 L 85.527344 31.453125 Z M 154.125 47.710938 " clip-rule="nonzero"/></clipPath></defs><g clip-path="url(#f7922da48d)"><g clip-path="url(#9d2fcba649)"><g clip-path="url(#91edbb7ad6)"><path fill="#ffffff" d="M 78.179688 64.75 C 82.488281 50.890625 96.566406 41.15625 110.886719 40.863281 C 125.644531 40.957031 139.882812 51.089844 144.230469 65.308594 C 147.136719 74.480469 145.351562 84.699219 140.738281 92.992188 C 134.75 103.167969 122.96875 109.203125 111.339844 109.546875 C 100.636719 109.792969 89.648438 105.179688 83.367188 96.292969 C 76.941406 88.070312 74.78125 76.847656 77.589844 66.800781 C 77.769531 66.113281 77.964844 65.429688 78.179688 64.753906 Z M 77.773438 73.527344 C 77.394531 76.109375 78.277344 75.847656 79.019531 73.59375 C 80.789062 69.671875 81.859375 65.242188 81.410156 60.945312 C 78.894531 64.035156 78.230469 68.777344 77.804688 72.804688 Z M 82.953125 61.605469 C 84.371094 63.847656 89.234375 63.011719 91.355469 61.847656 C 93.996094 58.75 97.59375 56.71875 100.582031 54.019531 C 102.042969 51.800781 100.917969 49.035156 100.902344 46.550781 C 98.578125 45.988281 95.988281 45.214844 93.886719 46.875 C 89.761719 49.445312 85.886719 52.808594 83.476562 57.074219 C 83.058594 58.527344 82.78125 60.089844 82.953125 61.605469 Z M 78.28125 80.90625 C 79.421875 87.355469 82.183594 93.804688 86.933594 98.414062 C 88.242188 99.976562 90.820312 101.507812 90.636719 98.1875 C 89.101562 93.710938 86.894531 89.472656 85.515625 84.929688 C 84.167969 82.054688 81.941406 79.683594 79.820312 77.363281 C 78.28125 77.632812 78.152344 79.660156 78.28125 80.90625 Z M 87.5 87.28125 C 89.222656 90.792969 89.769531 95.414062 93.074219 97.828125 C 95.792969 99.210938 98.765625 99.972656 101.640625 100.960938 C 104.941406 98.648438 107.5625 95.46875 110.066406 92.347656 C 110.609375 88.804688 108.183594 85.261719 106.828125 82.039062 C 106.363281 80.382812 104.453125 80.324219 103.148438 79.597656 C 100.011719 78.289062 96.898438 76.902344 93.691406 75.765625 C 91.015625 78.019531 88.429688 80.632812 86.859375 83.773438 C 86.558594 84.96875 87.136719 86.164062 87.5 87.28125 Z M 91.960938 66.191406 C 92.347656 69.09375 92.28125 72.800781 94.8125 74.71875 C 98.554688 76.585938 102.488281 78.0625 106.410156 79.507812 C 109.558594 77.460938 112.886719 75.265625 115.023438 72.109375 C 115.78125 69.128906 114.261719 66.089844 113.730469 63.152344 C 113.605469 59.339844 110.636719 57.324219 107.300781 56.367188 C 104.214844 54.523438 100.5 54.917969 97.945312 57.503906 C 95.371094 59.679688 91.457031 62.332031 91.960938 66.191406 Z M 101.917969 45.015625 C 106.433594 43.804688 111.171875 43.351562 115.820312 43.828125 C 115.898438 41.589844 110.183594 42.285156 107.898438 42.367188 C 104.765625 42.6875 101.738281 43.597656 98.757812 44.578125 C 99.757812 45.121094 100.78125 45.546875 101.917969 45.015625 Z M 119.957031 48.308594 C 121.085938 49.570312 121.792969 51.324219 123.203125 52.257812 C 127.632812 54.359375 131.753906 57.058594 135.378906 60.378906 C 138.097656 60.917969 140.449219 58.300781 137.832031 56.101562 C 133.339844 50.53125 127.429688 45.597656 120.390625 43.773438 C 118.097656 42.636719 115.832031 44.328125 118.417969 46.222656 C 118.929688 46.917969 119.445312 47.613281 119.957031 48.308594 Z M 103.597656 102.429688 C 105.546875 104.800781 107.773438 107.964844 111.148438 108.078125 C 117.519531 108.394531 124.054688 106.640625 129.171875 102.777344 C 130.117188 101.496094 132.964844 99.414062 131.09375 97.921875 C 128.613281 95.777344 126.804688 91.484375 122.964844 91.96875 C 119.21875 92.273438 115.386719 92.238281 111.71875 93.105469 C 108.632812 95.574219 105.957031 98.648438 103.566406 101.808594 Z M 114.738281 62.484375 C 115.488281 65.617188 116.410156 68.707031 117.304688 71.800781 C 120.308594 73.484375 123.179688 75.386719 126.089844 77.210938 C 129.480469 78.175781 132.660156 75.707031 135.546875 74.238281 C 139.230469 72.996094 137.574219 69.023438 136.984375 66.269531 C 135.363281 60.136719 129.25 57.371094 124.339844 54.253906 C 122.273438 54.035156 120.167969 55.46875 118.355469 56.453125 C 116.058594 57.859375 113.085938 59.347656 114.738281 62.484375 Z M 127.285156 86.65625 C 127.140625 88.152344 126.613281 89.734375 126.703125 91.175781 C 128.394531 93.699219 130.515625 96.070312 133.164062 97.582031 C 136.277344 97.253906 138.378906 94.214844 139.996094 91.757812 C 141.828125 88.574219 143.195312 85.027344 143.636719 81.375 C 142.933594 78.496094 140.214844 72.992188 136.644531 74.890625 C 133.925781 76.257812 131.28125 77.769531 128.667969 79.328125 C 128.070312 81.746094 127.6875 84.203125 127.285156 86.65625 Z M 127.285156 86.65625 " fill-opacity="1" fill-rule="nonzero"/></g></g></g><path stroke-linecap="butt" transform="matrix(0.74704, 0.000706846, -0.000709646, 0.75, 36.333969, 108.710871)" fill="none" stroke-linejoin="miter" d="M -0.00164383 1.000091 L 71.284871 1.000614 " stroke="#ffffff" stroke-width="2" stroke-opacity="1" stroke-miterlimit="4"/><path stroke-linecap="butt" transform="matrix(0.747669, 0.00639616, -0.00641587, 0.749973, 36.374098, 39.971085)" fill="none" stroke-linejoin="miter" d="M -0.000643448 1.002138 L 71.220694 0.998913 " stroke="#ffffff" stroke-width="2" stroke-opacity="1" stroke-miterlimit="4"/><path stroke-linecap="butt" transform="matrix(-0.750409, -0.000000000000000092, 0.000000000000000092, -0.75, 68.597078, 75.60229)" fill="none" stroke-linejoin="miter" d="M -0.000770515 1.00097 L 85.962771 1.00097 " stroke="#ffffff" stroke-width="2" stroke-opacity="1" stroke-miterlimit="4"/><path stroke-linecap="butt" transform="matrix(-0.747947, -0.000000000000000092, 0.000000000000000092, -0.75, 74.955225, 58.765129)" fill="none" stroke-linejoin="miter" d="M -0.00241511 0.999339 L 74.205938 0.999339 " stroke="#ffffff" stroke-width="2" stroke-opacity="1" stroke-miterlimit="4"/><path stroke-linecap="butt" transform="matrix(-0.747947, 0.000000000000000424, -0.000000000000000425, -0.75, 74.955225, 92.439445)" fill="none" stroke-linejoin="miter" d="M -0.00241511 1.002594 L 74.205938 1.002594 " stroke="#ffffff" stroke-width="2" stroke-opacity="1" stroke-miterlimit="4"/><g fill="#ffffff" fill-opacity="1"><g transform="translate(28.167268, 55.082106)"><g><path d="M 5.582031 -6.746094 L 0.875 -6.746094 C 0.808594 -6.746094 0.65625 -6.710938 0.65625 -6.449219 L 0.65625 -5.820312 C 0.65625 -5.566406 0.808594 -5.53125 0.875 -5.53125 L 5.582031 -5.53125 C 5.648438 -5.53125 5.8125 -5.558594 5.8125 -5.8125 L 5.8125 -6.457031 C 5.8125 -6.71875 5.648438 -6.746094 5.582031 -6.746094 Z M 5.542969 -4.003906 L 1.316406 -3.996094 C 1.082031 -3.976562 0.875 -3.847656 0.753906 -3.652344 C 0.71875 -3.585938 0.6875 -3.511719 0.671875 -3.4375 L 0.65625 -0.277344 C 0.65625 -0.0234375 0.820312 0.0078125 0.882812 0.0078125 L 1.636719 0.0078125 C 1.703125 0.0078125 1.867188 -0.0234375 1.867188 -0.277344 C 1.867188 -0.277344 1.875 -2.792969 1.882812 -2.792969 L 5.542969 -2.792969 C 5.605469 -2.792969 5.769531 -2.816406 5.769531 -3.070312 L 5.769531 -3.714844 C 5.769531 -3.96875 5.605469 -4.003906 5.542969 -4.003906 Z M 5.542969 -4.003906 "/></g></g></g><g fill="#ffffff" fill-opacity="1"><g transform="translate(35.042792, 55.082106)"><g><path d="M 6.230469 -6.148438 C 6.066406 -6.351562 5.851562 -6.507812 5.589844 -6.605469 C 5.335938 -6.695312 5.027344 -6.746094 4.664062 -6.746094 L 2.667969 -6.746094 C 2.308594 -6.746094 2.003906 -6.695312 1.75 -6.605469 C 1.488281 -6.507812 1.277344 -6.351562 1.113281 -6.148438 C 0.957031 -5.941406 0.835938 -5.671875 0.761719 -5.34375 C 0.6875 -5.027344 0.65625 -4.640625 0.65625 -4.183594 L 0.65625 -2.5625 C 0.65625 -2.105469 0.6875 -1.710938 0.761719 -1.390625 C 0.835938 -1.0625 0.957031 -0.792969 1.113281 -0.589844 C 1.277344 -0.375 1.488281 -0.222656 1.75 -0.132812 C 1.996094 -0.0390625 2.308594 0.0078125 2.667969 0.0078125 L 4.664062 0.0078125 C 5.027344 0.0078125 5.335938 -0.0390625 5.589844 -0.132812 C 5.851562 -0.222656 6.066406 -0.375 6.230469 -0.582031 C 6.394531 -0.792969 6.507812 -1.0625 6.582031 -1.390625 C 6.644531 -1.710938 6.6875 -2.105469 6.6875 -2.5625 L 6.6875 -4.183594 C 6.6875 -4.632812 6.644531 -5.027344 6.582031 -5.34375 C 6.507812 -5.671875 6.394531 -5.941406 6.230469 -6.148438 Z M 5.46875 -4.320312 L 5.46875 -2.414062 C 5.46875 -2.175781 5.460938 -1.972656 5.425781 -1.808594 C 5.402344 -1.660156 5.351562 -1.53125 5.289062 -1.449219 C 5.230469 -1.359375 5.148438 -1.300781 5.042969 -1.269531 C 4.9375 -1.226562 4.796875 -1.210938 4.625 -1.210938 L 2.710938 -1.210938 C 2.539062 -1.210938 2.398438 -1.226562 2.292969 -1.269531 C 2.183594 -1.300781 2.105469 -1.359375 2.046875 -1.449219 C 1.980469 -1.53125 1.941406 -1.660156 1.90625 -1.808594 C 1.882812 -1.972656 1.867188 -2.175781 1.867188 -2.414062 L 1.867188 -4.320312 C 1.867188 -4.558594 1.882812 -4.765625 1.90625 -4.925781 C 1.941406 -5.082031 1.980469 -5.207031 2.046875 -5.296875 C 2.105469 -5.378906 2.183594 -5.433594 2.292969 -5.476562 C 2.398438 -5.507812 2.539062 -5.53125 2.710938 -5.53125 L 4.625 -5.53125 C 4.796875 -5.53125 4.9375 -5.507812 5.042969 -5.476562 C 5.148438 -5.433594 5.230469 -5.378906 5.289062 -5.296875 C 5.351562 -5.207031 5.402344 -5.082031 5.425781 -4.925781 C 5.460938 -4.765625 5.46875 -4.558594 5.46875 -4.320312 Z M 5.46875 -4.320312 "/></g></g></g><g fill="#ffffff" fill-opacity="1"><g transform="translate(42.794128, 55.082106)"><g><path d="M 6.230469 -6.148438 C 6.066406 -6.351562 5.851562 -6.507812 5.589844 -6.605469 C 5.335938 -6.695312 5.027344 -6.746094 4.664062 -6.746094 L 2.667969 -6.746094 C 2.308594 -6.746094 2.003906 -6.695312 1.75 -6.605469 C 1.488281 -6.507812 1.277344 -6.351562 1.113281 -6.148438 C 0.957031 -5.941406 0.835938 -5.671875 0.761719 -5.34375 C 0.6875 -5.027344 0.65625 -4.640625 0.65625 -4.183594 L 0.65625 -2.5625 C 0.65625 -2.105469 0.6875 -1.710938 0.761719 -1.390625 C 0.835938 -1.0625 0.957031 -0.792969 1.113281 -0.589844 C 1.277344 -0.375 1.488281 -0.222656 1.75 -0.132812 C 1.996094 -0.0390625 2.308594 0.0078125 2.667969 0.0078125 L 4.664062 0.0078125 C 5.027344 0.0078125 5.335938 -0.0390625 5.589844 -0.132812 C 5.851562 -0.222656 6.066406 -0.375 6.230469 -0.582031 C 6.394531 -0.792969 6.507812 -1.0625 6.582031 -1.390625 C 6.644531 -1.710938 6.6875 -2.105469 6.6875 -2.5625 L 6.6875 -4.183594 C 6.6875 -4.632812 6.644531 -5.027344 6.582031 -5.34375 C 6.507812 -5.671875 6.394531 -5.941406 6.230469 -6.148438 Z M 5.46875 -4.320312 L 5.46875 -2.414062 C 5.46875 -2.175781 5.460938 -1.972656 5.425781 -1.808594 C 5.402344 -1.660156 5.351562 -1.53125 5.289062 -1.449219 C 5.230469 -1.359375 5.148438 -1.300781 5.042969 -1.269531 C 4.9375 -1.226562 4.796875 -1.210938 4.625 -1.210938 L 2.710938 -1.210938 C 2.539062 -1.210938 2.398438 -1.226562 2.292969 -1.269531 C 2.183594 -1.300781 2.105469 -1.359375 2.046875 -1.449219 C 1.980469 -1.53125 1.941406 -1.660156 1.90625 -1.808594 C 1.882812 -1.972656 1.867188 -2.175781 1.867188 -2.414062 L 1.867188 -4.320312 C 1.867188 -4.558594 1.882812 -4.765625 1.90625 -4.925781 C 1.941406 -5.082031 1.980469 -5.207031 2.046875 -5.296875 C 2.105469 -5.378906 2.183594 -5.433594 2.292969 -5.476562 C 2.398438 -5.507812 2.539062 -5.53125 2.710938 -5.53125 L 4.625 -5.53125 C 4.796875 -5.53125 4.9375 -5.507812 5.042969 -5.476562 C 5.148438 -5.433594 5.230469 -5.378906 5.289062 -5.296875 C 5.351562 -5.207031 5.402344 -5.082031 5.425781 -4.925781 C 5.460938 -4.765625 5.46875 -4.558594 5.46875 -4.320312 Z M 5.46875 -4.320312 "/></g></g></g><g fill="#ffffff" fill-opacity="1"><g transform="translate(50.545464, 55.082106)"><g><path d="M 6.3125 -6.746094 L 0.890625 -6.746094 C 0.820312 -6.746094 0.65625 -6.71875 0.65625 -6.464844 L 0.65625 -5.828125 C 0.65625 -5.558594 0.820312 -5.53125 0.890625 -5.53125 L 2.996094 -5.53125 L 2.996094 -0.277344 C 2.996094 -0.0234375 3.160156 0 3.226562 0 L 3.976562 0 C 4.050781 0 4.207031 -0.0234375 4.207031 -0.277344 L 4.207031 -5.53125 L 6.3125 -5.53125 C 6.382812 -5.53125 6.546875 -5.558594 6.546875 -5.828125 L 6.546875 -6.464844 C 6.546875 -6.71875 6.382812 -6.746094 6.3125 -6.746094 Z M 6.3125 -6.746094 "/></g></g></g><g fill="#ffffff" fill-opacity="1"><g transform="translate(58.15765, 55.082106)"><g><path d="M 6.710938 -6.746094 L 5.804688 -6.746094 C 5.730469 -6.746094 5.632812 -6.71875 5.566406 -6.597656 L 3.765625 -3.316406 L 1.980469 -6.589844 C 1.914062 -6.71875 1.816406 -6.746094 1.742188 -6.746094 L 0.808594 -6.746094 C 0.738281 -6.746094 0.679688 -6.703125 0.664062 -6.628906 C 0.648438 -6.574219 0.65625 -6.507812 0.6875 -6.449219 L 3.144531 -2.070312 L 3.144531 -0.277344 C 3.144531 -0.0234375 3.308594 0 3.371094 0 L 4.125 0 C 4.191406 0 4.355469 -0.0234375 4.355469 -0.277344 L 4.355469 -2.070312 L 6.835938 -6.449219 C 6.867188 -6.507812 6.875 -6.574219 6.859375 -6.636719 C 6.835938 -6.703125 6.777344 -6.746094 6.710938 -6.746094 Z M 6.710938 -6.746094 "/></g></g></g><g fill="#ffffff" fill-opacity="1"><g transform="translate(6.574618, 72.066984)"><g><path d="M 6.3125 -6.746094 L 0.890625 -6.746094 C 0.820312 -6.746094 0.65625 -6.71875 0.65625 -6.464844 L 0.65625 -5.828125 C 0.65625 -5.558594 0.820312 -5.53125 0.890625 -5.53125 L 2.996094 -5.53125 L 2.996094 -0.277344 C 2.996094 -0.0234375 3.160156 0 3.226562 0 L 3.976562 0 C 4.050781 0 4.207031 -0.0234375 4.207031 -0.277344 L 4.207031 -5.53125 L 6.3125 -5.53125 C 6.382812 -5.53125 6.546875 -5.558594 6.546875 -5.828125 L 6.546875 -6.464844 C 6.546875 -6.71875 6.382812 -6.746094 6.3125 -6.746094 Z M 6.3125 -6.746094 "/></g></g></g><g fill="#ffffff" fill-opacity="1"><g transform="translate(14.186804, 72.066984)"><g><path d="M 6.238281 -4.789062 C 6.238281 -4.78125 6.238281 -4.773438 6.238281 -4.765625 C 6.238281 -4.753906 6.238281 -4.746094 6.238281 -4.738281 Z M 6.394531 -0.351562 L 4.960938 -2.808594 C 5.359375 -2.855469 5.671875 -3.027344 5.878906 -3.308594 C 6.105469 -3.640625 6.230469 -4.125 6.238281 -4.765625 C 6.230469 -5.402344 6.105469 -5.886719 5.878906 -6.222656 C 5.632812 -6.574219 5.222656 -6.746094 4.664062 -6.746094 L 0.890625 -6.746094 C 0.820312 -6.746094 0.65625 -6.71875 0.65625 -6.457031 L 0.65625 -5.8125 C 0.65625 -5.558594 0.820312 -5.53125 0.890625 -5.53125 L 4.453125 -5.53125 C 4.664062 -5.53125 4.804688 -5.476562 4.886719 -5.351562 C 4.976562 -5.230469 5.015625 -5.035156 5.015625 -4.765625 C 5.015625 -4.492188 4.976562 -4.296875 4.886719 -4.175781 C 4.804688 -4.050781 4.664062 -3.996094 4.453125 -3.996094 L 0.890625 -3.996094 C 0.820312 -3.996094 0.65625 -3.96875 0.65625 -3.714844 L 0.65625 -0.277344 C 0.65625 -0.0234375 0.820312 0.0078125 0.890625 0.0078125 L 1.636719 0.0078125 C 1.710938 0.0078125 1.867188 -0.0234375 1.867188 -0.277344 L 1.867188 -2.78125 L 3.59375 -2.78125 L 5.074219 -0.15625 C 5.109375 -0.105469 5.132812 -0.0664062 5.164062 -0.0390625 C 5.207031 -0.0078125 5.261719 0.0078125 5.335938 0.0078125 L 6.238281 0.0078125 C 6.335938 0.0078125 6.410156 -0.0585938 6.425781 -0.15625 C 6.433594 -0.238281 6.425781 -0.304688 6.394531 -0.351562 Z M 6.394531 -0.351562 "/></g></g></g><g fill="#ffffff" fill-opacity="1"><g transform="translate(21.684398, 72.066984)"><g><path d="M 5.042969 -5.984375 C 5.027344 -6.023438 5.007812 -6.074219 4.992188 -6.105469 C 4.863281 -6.53125 4.46875 -6.835938 4.019531 -6.835938 C 3.8125 -6.835938 3.617188 -6.777344 3.453125 -6.664062 C 3.40625 -6.636719 3.363281 -6.605469 3.332031 -6.582031 C 3.207031 -6.472656 3.085938 -6.277344 2.972656 -5.984375 L 0.6875 -0.3125 C 0.664062 -0.238281 0.65625 -0.164062 0.671875 -0.113281 C 0.679688 -0.0664062 0.71875 0.0078125 0.851562 0.0078125 L 1.75 0.0078125 C 1.859375 0.0078125 1.941406 -0.0585938 1.980469 -0.164062 L 2.449219 -1.335938 L 4.238281 -1.335938 C 4.328125 -1.335938 4.410156 -1.375 4.453125 -1.449219 C 4.5 -1.515625 4.511719 -1.605469 4.484375 -1.6875 L 4.191406 -2.414062 C 4.148438 -2.511719 4.058594 -2.578125 3.953125 -2.578125 L 2.9375 -2.578125 L 3.984375 -5.230469 C 3.996094 -5.246094 4.003906 -5.253906 4.003906 -5.253906 L 4.035156 -5.253906 C 4.035156 -5.253906 4.035156 -5.253906 4.042969 -5.238281 L 6.074219 -0.171875 C 6.113281 -0.0585938 6.195312 0.0078125 6.3125 0.0078125 L 7.1875 0.0078125 C 7.316406 0.0078125 7.351562 -0.0742188 7.367188 -0.113281 C 7.382812 -0.164062 7.375 -0.238281 7.34375 -0.3125 Z M 5.042969 -5.984375 "/></g></g></g><g fill="#ffffff" fill-opacity="1"><g transform="translate(30.131471, 72.066984)"><g><path d="M 6.449219 -6.746094 L 5.722656 -6.746094 C 5.648438 -6.746094 5.492188 -6.71875 5.492188 -6.457031 L 5.492188 -1.539062 C 5.492188 -1.53125 5.492188 -1.53125 5.492188 -1.523438 L 5.453125 -1.523438 C 5.441406 -1.523438 5.433594 -1.523438 5.425781 -1.546875 L 2.839844 -6.148438 C 2.773438 -6.269531 2.71875 -6.367188 2.660156 -6.441406 C 2.601562 -6.523438 2.546875 -6.589844 2.488281 -6.628906 C 2.421875 -6.679688 2.347656 -6.710938 2.257812 -6.726562 C 2.175781 -6.738281 2.078125 -6.746094 1.972656 -6.746094 L 1.359375 -6.746094 C 1.121094 -6.746094 0.941406 -6.664062 0.828125 -6.515625 C 0.710938 -6.359375 0.65625 -6.089844 0.65625 -5.6875 L 0.65625 -0.277344 C 0.65625 -0.0234375 0.820312 0.0078125 0.890625 0.0078125 L 1.621094 0.0078125 C 1.695312 0.0078125 1.851562 -0.0234375 1.851562 -0.277344 L 1.851562 -5.199219 C 1.851562 -5.207031 1.851562 -5.214844 1.851562 -5.214844 L 1.890625 -5.214844 C 1.890625 -5.214844 1.898438 -5.214844 1.914062 -5.1875 L 4.511719 -0.589844 C 4.574219 -0.457031 4.640625 -0.359375 4.699219 -0.285156 C 4.753906 -0.203125 4.8125 -0.148438 4.878906 -0.105469 C 4.945312 -0.0585938 5.015625 -0.03125 5.097656 -0.015625 C 5.171875 0 5.261719 0.0078125 5.378906 0.0078125 L 5.976562 0.0078125 C 6.210938 0.0078125 6.394531 -0.0742188 6.507812 -0.230469 C 6.621094 -0.375 6.679688 -0.648438 6.679688 -1.046875 L 6.679688 -6.457031 C 6.679688 -6.71875 6.515625 -6.746094 6.449219 -6.746094 Z M 6.449219 -6.746094 "/></g></g></g><g fill="#ffffff" fill-opacity="1"><g transform="translate(37.874621, 72.066984)"><g><path d="M 4.609375 -4.027344 L 2.152344 -4.027344 C 2.03125 -4.027344 1.875 -4.078125 1.875 -4.476562 L 1.875 -5.082031 C 1.875 -5.230469 1.898438 -5.34375 1.941406 -5.425781 C 1.972656 -5.476562 2.023438 -5.53125 2.160156 -5.53125 L 5.492188 -5.53125 C 5.558594 -5.53125 5.722656 -5.558594 5.722656 -5.8125 L 5.722656 -6.464844 C 5.722656 -6.71875 5.558594 -6.746094 5.492188 -6.746094 L 1.964844 -6.746094 C 1.515625 -6.746094 1.1875 -6.597656 0.972656 -6.292969 C 0.761719 -6 0.65625 -5.605469 0.65625 -5.132812 L 0.65625 -4.511719 C 0.65625 -3.945312 0.769531 -3.488281 0.972656 -3.199219 C 1.226562 -2.863281 1.605469 -2.816406 1.949219 -2.816406 L 4.402344 -2.816406 C 4.527344 -2.816406 4.691406 -2.765625 4.691406 -2.367188 L 4.691406 -1.660156 C 4.691406 -1.515625 4.664062 -1.398438 4.617188 -1.316406 C 4.582031 -1.269531 4.535156 -1.210938 4.394531 -1.210938 L 0.898438 -1.210938 C 0.828125 -1.210938 0.664062 -1.1875 0.664062 -0.933594 L 0.664062 -0.277344 C 0.664062 -0.0234375 0.828125 0 0.898438 0 L 4.59375 0 C 5.042969 0 5.378906 -0.15625 5.589844 -0.457031 C 5.796875 -0.753906 5.902344 -1.136719 5.902344 -1.613281 L 5.902344 -2.332031 C 5.902344 -2.863281 5.796875 -3.28125 5.582031 -3.578125 C 5.359375 -3.871094 5.035156 -4.027344 4.609375 -4.027344 Z M 4.609375 -4.027344 "/></g></g></g><g fill="#ffffff" fill-opacity="1"><g transform="translate(44.84018, 72.066984)"><g><path d="M 5.582031 -6.746094 L 0.875 -6.746094 C 0.808594 -6.746094 0.65625 -6.710938 0.65625 -6.449219 L 0.65625 -5.820312 C 0.65625 -5.566406 0.808594 -5.53125 0.875 -5.53125 L 5.582031 -5.53125 C 5.648438 -5.53125 5.8125 -5.558594 5.8125 -5.8125 L 5.8125 -6.457031 C 5.8125 -6.71875 5.648438 -6.746094 5.582031 -6.746094 Z M 5.542969 -4.003906 L 1.316406 -3.996094 C 1.082031 -3.976562 0.875 -3.847656 0.753906 -3.652344 C 0.71875 -3.585938 0.6875 -3.511719 0.671875 -3.4375 L 0.65625 -0.277344 C 0.65625 -0.0234375 0.820312 0.0078125 0.882812 0.0078125 L 1.636719 0.0078125 C 1.703125 0.0078125 1.867188 -0.0234375 1.867188 -0.277344 C 1.867188 -0.277344 1.875 -2.792969 1.882812 -2.792969 L 5.542969 -2.792969 C 5.605469 -2.792969 5.769531 -2.816406 5.769531 -3.070312 L 5.769531 -3.714844 C 5.769531 -3.96875 5.605469 -4.003906 5.542969 -4.003906 Z M 5.542969 -4.003906 "/></g></g></g><g fill="#ffffff" fill-opacity="1"><g transform="translate(51.715705, 72.066984)"><g><path d="M 5.574219 -1.464844 L 2.691406 -1.464844 C 2.519531 -1.464844 2.382812 -1.488281 2.265625 -1.523438 C 2.160156 -1.5625 2.085938 -1.621094 2.023438 -1.703125 C 1.957031 -1.792969 1.90625 -1.914062 1.882812 -2.070312 C 1.875 -2.113281 1.875 -2.167969 1.867188 -2.210938 C 1.867188 -2.210938 1.875 -2.800781 1.882812 -2.800781 L 5.542969 -2.800781 C 5.605469 -2.800781 5.769531 -2.832031 5.769531 -3.085938 L 5.769531 -3.734375 C 5.769531 -3.984375 5.605469 -4.011719 5.542969 -4.011719 L 1.316406 -4.003906 C 1.082031 -3.984375 0.875 -3.863281 0.761719 -3.660156 C 0.71875 -3.59375 0.6875 -3.527344 0.671875 -3.453125 L 0.65625 -2.421875 L 0.65625 -2.382812 C 0.664062 -1.996094 0.703125 -1.667969 0.761719 -1.398438 C 0.835938 -1.070312 0.957031 -0.800781 1.113281 -0.597656 C 1.277344 -0.382812 1.488281 -0.238281 1.75 -0.148438 C 2.003906 -0.0507812 2.308594 -0.0078125 2.667969 -0.0078125 L 5.574219 -0.0078125 C 5.648438 -0.0078125 5.8125 -0.03125 5.8125 -0.285156 L 5.8125 -1.1875 C 5.8125 -1.441406 5.648438 -1.464844 5.574219 -1.464844 Z M 5.582031 -6.761719 L 0.875 -6.761719 C 0.808594 -6.761719 0.65625 -6.726562 0.65625 -6.464844 L 0.65625 -5.828125 C 0.65625 -5.574219 0.808594 -5.550781 0.875 -5.550781 L 5.582031 -5.542969 C 5.648438 -5.542969 5.8125 -5.574219 5.8125 -5.828125 L 5.8125 -6.472656 C 5.8125 -6.726562 5.648438 -6.761719 5.582031 -6.761719 Z M 5.582031 -6.761719 "/></g></g></g><g fill="#ffffff" fill-opacity="1"><g transform="translate(58.59123, 72.066984)"><g><path d="M 6.238281 -4.789062 C 6.238281 -4.78125 6.238281 -4.773438 6.238281 -4.765625 C 6.238281 -4.753906 6.238281 -4.746094 6.238281 -4.738281 Z M 6.394531 -0.351562 L 4.960938 -2.808594 C 5.359375 -2.855469 5.671875 -3.027344 5.878906 -3.308594 C 6.105469 -3.640625 6.230469 -4.125 6.238281 -4.765625 C 6.230469 -5.402344 6.105469 -5.886719 5.878906 -6.222656 C 5.632812 -6.574219 5.222656 -6.746094 4.664062 -6.746094 L 0.890625 -6.746094 C 0.820312 -6.746094 0.65625 -6.71875 0.65625 -6.457031 L 0.65625 -5.8125 C 0.65625 -5.558594 0.820312 -5.53125 0.890625 -5.53125 L 4.453125 -5.53125 C 4.664062 -5.53125 4.804688 -5.476562 4.886719 -5.351562 C 4.976562 -5.230469 5.015625 -5.035156 5.015625 -4.765625 C 5.015625 -4.492188 4.976562 -4.296875 4.886719 -4.175781 C 4.804688 -4.050781 4.664062 -3.996094 4.453125 -3.996094 L 0.890625 -3.996094 C 0.820312 -3.996094 0.65625 -3.96875 0.65625 -3.714844 L 0.65625 -0.277344 C 0.65625 -0.0234375 0.820312 0.0078125 0.890625 0.0078125 L 1.636719 0.0078125 C 1.710938 0.0078125 1.867188 -0.0234375 1.867188 -0.277344 L 1.867188 -2.78125 L 3.59375 -2.78125 L 5.074219 -0.15625 C 5.109375 -0.105469 5.132812 -0.0664062 5.164062 -0.0390625 C 5.207031 -0.0078125 5.261719 0.0078125 5.335938 0.0078125 L 6.238281 0.0078125 C 6.335938 0.0078125 6.410156 -0.0585938 6.425781 -0.15625 C 6.433594 -0.238281 6.425781 -0.304688 6.394531 -0.351562 Z M 6.394531 -0.351562 "/></g></g></g><g fill="#ffffff" fill-opacity="1"><g transform="translate(24.492468, 89.039923)"><g><path d="M 4.664062 -6.746094 L 0.882812 -6.746094 C 0.820312 -6.746094 0.65625 -6.71875 0.65625 -6.457031 L 0.65625 -5.8125 C 0.65625 -5.558594 0.820312 -5.53125 0.882812 -5.53125 L 4.453125 -5.53125 C 4.65625 -5.53125 4.804688 -5.476562 4.886719 -5.351562 C 4.976562 -5.230469 5.015625 -5.035156 5.015625 -4.765625 C 5.015625 -4.492188 4.976562 -4.296875 4.886719 -4.175781 C 4.804688 -4.050781 4.65625 -3.996094 4.453125 -3.996094 L 0.882812 -3.996094 C 0.820312 -3.996094 0.65625 -3.96875 0.65625 -3.714844 L 0.65625 -0.277344 C 0.65625 -0.0234375 0.820312 0.0078125 0.882812 0.0078125 L 1.636719 0.0078125 C 1.703125 0.0078125 1.867188 -0.0234375 1.867188 -0.277344 L 1.867188 -2.78125 L 4.664062 -2.792969 C 5.222656 -2.792969 5.625 -2.964844 5.867188 -3.308594 C 6.113281 -3.652344 6.230469 -4.140625 6.230469 -4.789062 L 6.230469 -4.738281 C 6.230469 -5.394531 6.113281 -5.886719 5.867188 -6.222656 C 5.625 -6.574219 5.222656 -6.746094 4.664062 -6.746094 Z M 4.664062 -6.746094 "/></g></g></g><g fill="#ffffff" fill-opacity="1"><g transform="translate(31.785436, 89.039923)"><g><path d="M 6.230469 -6.148438 C 6.066406 -6.351562 5.851562 -6.507812 5.589844 -6.605469 C 5.335938 -6.695312 5.027344 -6.746094 4.664062 -6.746094 L 2.667969 -6.746094 C 2.308594 -6.746094 2.003906 -6.695312 1.75 -6.605469 C 1.488281 -6.507812 1.277344 -6.351562 1.113281 -6.148438 C 0.957031 -5.941406 0.835938 -5.671875 0.761719 -5.34375 C 0.6875 -5.027344 0.65625 -4.640625 0.65625 -4.183594 L 0.65625 -2.5625 C 0.65625 -2.105469 0.6875 -1.710938 0.761719 -1.390625 C 0.835938 -1.0625 0.957031 -0.792969 1.113281 -0.589844 C 1.277344 -0.375 1.488281 -0.222656 1.75 -0.132812 C 1.996094 -0.0390625 2.308594 0.0078125 2.667969 0.0078125 L 4.664062 0.0078125 C 5.027344 0.0078125 5.335938 -0.0390625 5.589844 -0.132812 C 5.851562 -0.222656 6.066406 -0.375 6.230469 -0.582031 C 6.394531 -0.792969 6.507812 -1.0625 6.582031 -1.390625 C 6.644531 -1.710938 6.6875 -2.105469 6.6875 -2.5625 L 6.6875 -4.183594 C 6.6875 -4.632812 6.644531 -5.027344 6.582031 -5.34375 C 6.507812 -5.671875 6.394531 -5.941406 6.230469 -6.148438 Z M 5.46875 -4.320312 L 5.46875 -2.414062 C 5.46875 -2.175781 5.460938 -1.972656 5.425781 -1.808594 C 5.402344 -1.660156 5.351562 -1.53125 5.289062 -1.449219 C 5.230469 -1.359375 5.148438 -1.300781 5.042969 -1.269531 C 4.9375 -1.226562 4.796875 -1.210938 4.625 -1.210938 L 2.710938 -1.210938 C 2.539062 -1.210938 2.398438 -1.226562 2.292969 -1.269531 C 2.183594 -1.300781 2.105469 -1.359375 2.046875 -1.449219 C 1.980469 -1.53125 1.941406 -1.660156 1.90625 -1.808594 C 1.882812 -1.972656 1.867188 -2.175781 1.867188 -2.414062 L 1.867188 -4.320312 C 1.867188 -4.558594 1.882812 -4.765625 1.90625 -4.925781 C 1.941406 -5.082031 1.980469 -5.207031 2.046875 -5.296875 C 2.105469 -5.378906 2.183594 -5.433594 2.292969 -5.476562 C 2.398438 -5.507812 2.539062 -5.53125 2.710938 -5.53125 L 4.625 -5.53125 C 4.796875 -5.53125 4.9375 -5.507812 5.042969 -5.476562 C 5.148438 -5.433594 5.230469 -5.378906 5.289062 -5.296875 C 5.351562 -5.207031 5.402344 -5.082031 5.425781 -4.925781 C 5.460938 -4.765625 5.46875 -4.558594 5.46875 -4.320312 Z M 5.46875 -4.320312 "/></g></g></g><g fill="#ffffff" fill-opacity="1"><g transform="translate(39.536772, 89.039923)"><g><path d="M 6.238281 -4.789062 C 6.238281 -4.78125 6.238281 -4.773438 6.238281 -4.765625 C 6.238281 -4.753906 6.238281 -4.746094 6.238281 -4.738281 Z M 6.394531 -0.351562 L 4.960938 -2.808594 C 5.359375 -2.855469 5.671875 -3.027344 5.878906 -3.308594 C 6.105469 -3.640625 6.230469 -4.125 6.238281 -4.765625 C 6.230469 -5.402344 6.105469 -5.886719 5.878906 -6.222656 C 5.632812 -6.574219 5.222656 -6.746094 4.664062 -6.746094 L 0.890625 -6.746094 C 0.820312 -6.746094 0.65625 -6.71875 0.65625 -6.457031 L 0.65625 -5.8125 C 0.65625 -5.558594 0.820312 -5.53125 0.890625 -5.53125 L 4.453125 -5.53125 C 4.664062 -5.53125 4.804688 -5.476562 4.886719 -5.351562 C 4.976562 -5.230469 5.015625 -5.035156 5.015625 -4.765625 C 5.015625 -4.492188 4.976562 -4.296875 4.886719 -4.175781 C 4.804688 -4.050781 4.664062 -3.996094 4.453125 -3.996094 L 0.890625 -3.996094 C 0.820312 -3.996094 0.65625 -3.96875 0.65625 -3.714844 L 0.65625 -0.277344 C 0.65625 -0.0234375 0.820312 0.0078125 0.890625 0.0078125 L 1.636719 0.0078125 C 1.710938 0.0078125 1.867188 -0.0234375 1.867188 -0.277344 L 1.867188 -2.78125 L 3.59375 -2.78125 L 5.074219 -0.15625 C 5.109375 -0.105469 5.132812 -0.0664062 5.164062 -0.0390625 C 5.207031 -0.0078125 5.261719 0.0078125 5.335938 0.0078125 L 6.238281 0.0078125 C 6.335938 0.0078125 6.410156 -0.0585938 6.425781 -0.15625 C 6.433594 -0.238281 6.425781 -0.304688 6.394531 -0.351562 Z M 6.394531 -0.351562 "/></g></g></g><g fill="#ffffff" fill-opacity="1"><g transform="translate(47.034366, 89.039923)"><g><path d="M 6.3125 -6.746094 L 0.890625 -6.746094 C 0.820312 -6.746094 0.65625 -6.71875 0.65625 -6.464844 L 0.65625 -5.828125 C 0.65625 -5.558594 0.820312 -5.53125 0.890625 -5.53125 L 2.996094 -5.53125 L 2.996094 -0.277344 C 2.996094 -0.0234375 3.160156 0 3.226562 0 L 3.976562 0 C 4.050781 0 4.207031 -0.0234375 4.207031 -0.277344 L 4.207031 -5.53125 L 6.3125 -5.53125 C 6.382812 -5.53125 6.546875 -5.558594 6.546875 -5.828125 L 6.546875 -6.464844 C 6.546875 -6.71875 6.382812 -6.746094 6.3125 -6.746094 Z M 6.3125 -6.746094 "/></g></g></g><g fill="#ffffff" fill-opacity="1"><g transform="translate(54.646552, 89.039923)"><g><path d="M 5.042969 -5.984375 C 5.027344 -6.023438 5.007812 -6.074219 4.992188 -6.105469 C 4.863281 -6.53125 4.46875 -6.835938 4.019531 -6.835938 C 3.8125 -6.835938 3.617188 -6.777344 3.453125 -6.664062 C 3.40625 -6.636719 3.363281 -6.605469 3.332031 -6.582031 C 3.207031 -6.472656 3.085938 -6.277344 2.972656 -5.984375 L 0.6875 -0.3125 C 0.664062 -0.238281 0.65625 -0.164062 0.671875 -0.113281 C 0.679688 -0.0664062 0.71875 0.0078125 0.851562 0.0078125 L 1.75 0.0078125 C 1.859375 0.0078125 1.941406 -0.0585938 1.980469 -0.164062 L 2.449219 -1.335938 L 4.238281 -1.335938 C 4.328125 -1.335938 4.410156 -1.375 4.453125 -1.449219 C 4.5 -1.515625 4.511719 -1.605469 4.484375 -1.6875 L 4.191406 -2.414062 C 4.148438 -2.511719 4.058594 -2.578125 3.953125 -2.578125 L 2.9375 -2.578125 L 3.984375 -5.230469 C 3.996094 -5.246094 4.003906 -5.253906 4.003906 -5.253906 L 4.035156 -5.253906 C 4.035156 -5.253906 4.035156 -5.253906 4.042969 -5.238281 L 6.074219 -0.171875 C 6.113281 -0.0585938 6.195312 0.0078125 6.3125 0.0078125 L 7.1875 0.0078125 C 7.316406 0.0078125 7.351562 -0.0742188 7.367188 -0.113281 C 7.382812 -0.164062 7.375 -0.238281 7.34375 -0.3125 Z M 5.042969 -5.984375 "/></g></g></g><g fill="#ffffff" fill-opacity="1"><g transform="translate(63.093625, 89.039923)"><g><path d="M 5.378906 -1.210938 L 2.71875 -1.210938 C 2.546875 -1.210938 2.40625 -1.226562 2.292969 -1.269531 C 2.195312 -1.300781 2.113281 -1.359375 2.054688 -1.449219 C 1.988281 -1.539062 1.941406 -1.660156 1.914062 -1.808594 C 1.882812 -1.972656 1.875 -2.175781 1.875 -2.421875 L 1.875 -6.457031 C 1.875 -6.71875 1.710938 -6.746094 1.644531 -6.746094 L 0.890625 -6.746094 C 0.820312 -6.746094 0.65625 -6.71875 0.65625 -6.457031 L 0.65625 -2.5625 C 0.65625 -2.105469 0.695312 -1.710938 0.769531 -1.390625 C 0.84375 -1.0625 0.957031 -0.792969 1.121094 -0.589844 C 1.285156 -0.375 1.496094 -0.222656 1.761719 -0.132812 C 2.003906 -0.0390625 2.316406 0.0078125 2.675781 0.0078125 L 5.378906 0.0078125 C 5.453125 0.0078125 5.605469 -0.0234375 5.605469 -0.277344 L 5.605469 -0.925781 C 5.605469 -1.179688 5.453125 -1.210938 5.378906 -1.210938 Z M 5.378906 -1.210938 "/></g></g></g></svg>